<?xml version="1.0" encoding="UTF-8"?>
<!DOCTYPE svg PUBLIC "-//W3C//DTD SVG 1.1//EN" "http://www.w3.org/Graphics/SVG/1.1/DTD/svg11.dtd">
<!-- Creator: CorelDRAW 2021 (64 Bit) -->
<svg xmlns="http://www.w3.org/2000/svg" xml:space="preserve" width="88.1864mm" height="66.9648mm" version="1.1" style="shape-rendering:geometricPrecision; text-rendering:geometricPrecision; image-rendering:optimizeQuality; fill-rule:evenodd; clip-rule:evenodd"
viewBox="0 0 1234.43 937.37"
 xmlns:xlink="http://www.w3.org/1999/xlink"
 xmlns:xodm="http://www.corel.com/coreldraw/odm/2003">
 <defs>
  <style type="text/css">
   <![CDATA[
    .fil1 {fill:#282829;fill-rule:nonzero}
    .fil2 {fill:#24A59C;fill-rule:nonzero}
    .fil0 {fill:url(#id0)}
   ]]>
  </style>
  <linearGradient id="id0" gradientUnits="userSpaceOnUse" x1="619.3" y1="315.69" x2="703.25" y2="-7.76">
   <stop offset="0" style="stop-opacity:1; stop-color:#354785"/>
   <stop offset="1" style="stop-opacity:1; stop-color:#01ACDF"/>
  </linearGradient>
 </defs>
 <g id="Camada_x0020_1">
  <metadata id="CorelCorpID_0Corel-Layer"/>
  <path class="fil0" d="M376.74 364.88l96.56 64.14 97.59 64.86c-0.02,0.57 0,1.16 -0.01,1.75 -3.43,10.14 -5.32,21 -5.32,32.3 0,55.73 45.17,100.9 100.9,100.9 55.73,0 100.9,-45.17 100.9,-100.9 0,-41.53 -25.09,-77.19 -60.94,-92.67l7.51 -107.48c0.99,-0.86 2.3,-1.53 4.01,-1.84 8.05,-2.75 15.7,-6.44 22.9,-10.85 32.46,-16.52 54.74,-50.19 54.74,-89.12 0,-4.73 -0.36,-9.36 -0.99,-13.91l4 -1.84 44.52 -20.39 51.05 -23.36c18.31,20.48 44.91,33.4 74.53,33.4 55.23,0 99.98,-44.75 99.98,-99.93 0,-55.18 -44.74,-99.93 -99.98,-99.93 -55.18,0 -99.93,44.75 -99.93,99.93 0,6.3 0.63,12.42 1.71,18.41l-58.43 26.55 -39.07 17.78c-18.32,-22.37 -46.18,-36.64 -77.33,-36.64 -55.18,0 -99.93,44.74 -99.93,99.93 0,25.92 9.86,49.51 26.02,67.25 9.09,10.98 20.75,19.8 34.26,24.89l-3.61 86.11c-0.56,7.96 -0.95,15.95 -1.11,23.94 -18.41,2.77 -35.19,10.53 -48.93,21.84l-191.14 -130.95c3.97,-10.76 6.13,-22.41 6.13,-34.57 0,-55.18 -44.75,-99.93 -99.93,-99.93 -55.19,0 -99.93,44.75 -99.93,99.93 0,55.18 44.74,99.93 99.93,99.93 22.23,0 42.76,-7.24 59.32,-19.53z"/>
  <path class="fil1" d="M38.49 852.23l67.57 0 0 32.01 -67.57 0 0 -32.01zm2.93 82.21l-41.42 0 0 -146.43 114.84 0 0 32.01 -73.43 0 0 114.43z"/>
  <polygon class="fil1" points="134.3,934.44 134.3,788.01 175.72,788.01 175.72,901.6 245.59,901.6 245.59,934.44 "/>
  <path class="fil1" d="M328.01 937.37c-21.62,0 -38.49,-5.93 -50.63,-17.78 -12.13,-11.85 -18.2,-28.66 -18.2,-50.42l0 -81.17 41.42 0 0 79.91c0,12.55 2.48,21.55 7.43,26.99 4.95,5.44 11.75,8.16 20.4,8.16 8.65,0 15.41,-2.72 20.3,-8.16 4.88,-5.44 7.32,-14.43 7.32,-26.99l0 -79.91 40.8 0 0 81.17c0,21.75 -6.07,38.56 -18.2,50.42 -12.13,11.85 -29,17.78 -50.62,17.78z"/>
  <polygon class="fil1" points="407.71,934.44 471.72,845.54 471.51,875.03 410.01,788.01 456.66,788.01 495.99,844.7 476.11,844.91 514.81,788.01 559.58,788.01 498.08,873.36 498.08,844.08 562.93,934.44 515.23,934.44 475.27,874.82 494.32,874.82 454.99,934.44 "/>
  <path class="fil1" d="M645.56 937.37c-11.71,0 -22.53,-1.88 -32.42,-5.65 -9.9,-3.77 -18.51,-9.1 -25.84,-16.01 -7.32,-6.9 -13.01,-14.96 -17.05,-24.16 -4.04,-9.2 -6.07,-19.32 -6.07,-30.33 0,-11.02 2.03,-21.13 6.07,-30.33 4.04,-9.21 9.73,-17.26 17.05,-24.16 7.33,-6.9 15.94,-12.24 25.84,-16.01 9.9,-3.77 20.71,-5.65 32.42,-5.65 11.86,0 22.7,1.88 32.53,5.65 9.83,3.77 18.37,9.1 25.63,16.01 7.25,6.9 12.93,14.95 17.05,24.16 4.11,9.2 6.17,19.31 6.17,30.33 0,11.02 -2.06,21.16 -6.17,30.44 -4.12,9.27 -9.8,17.33 -17.05,24.16 -7.26,6.83 -15.8,12.13 -25.63,15.9 -9.83,3.77 -20.67,5.65 -32.53,5.65zm0 -34.31c5.58,0 10.77,-0.98 15.59,-2.93 4.81,-1.95 8.99,-4.77 12.55,-8.47 3.55,-3.7 6.35,-8.12 8.37,-13.29 2.02,-5.16 3.03,-10.88 3.03,-17.15 0,-6.41 -1.01,-12.17 -3.03,-17.26 -2.02,-5.09 -4.81,-9.48 -8.37,-13.18 -3.56,-3.69 -7.74,-6.52 -12.55,-8.47 -4.82,-1.95 -10.01,-2.93 -15.59,-2.93 -5.58,0 -10.77,0.98 -15.59,2.93 -4.81,1.95 -8.99,4.78 -12.55,8.47 -3.55,3.7 -6.34,8.09 -8.37,13.18 -2.02,5.09 -3.03,10.84 -3.03,17.26 0,6.28 1.01,11.99 3.03,17.15 2.02,5.16 4.81,9.59 8.37,13.29 3.56,3.69 7.74,6.52 12.55,8.47 4.82,1.96 10.01,2.93 15.59,2.93z"/>
  <path class="fil1" d="M748.69 934.44l0 -146.43 69.24 0c16.18,0 30.41,3 42.68,8.99 12.27,6 21.86,14.44 28.77,25.31 6.9,10.88 10.35,23.85 10.35,38.91 0,14.92 -3.45,27.86 -10.35,38.81 -6.9,10.95 -16.49,19.42 -28.77,25.42 -12.27,6 -26.5,9 -42.68,9l-69.24 0zm41.42 -33.05l26.15 0c8.37,0 15.65,-1.57 21.86,-4.71 6.21,-3.14 11.05,-7.74 14.54,-13.81 3.49,-6.07 5.23,-13.28 5.23,-21.65 0,-8.51 -1.74,-15.76 -5.23,-21.76 -3.49,-6 -8.33,-10.56 -14.54,-13.7 -6.21,-3.14 -13.49,-4.71 -21.86,-4.71l-26.15 0 0 80.33z"/>
  <path class="fil1" d="M995.33 937.37c-11.72,0 -22.53,-1.88 -32.42,-5.65 -9.9,-3.77 -18.51,-9.1 -25.84,-16.01 -7.32,-6.9 -13,-14.96 -17.05,-24.16 -4.04,-9.2 -6.07,-19.32 -6.07,-30.33 0,-11.02 2.03,-21.13 6.07,-30.33 4.05,-9.21 9.73,-17.26 17.05,-24.16 7.33,-6.9 15.94,-12.24 25.84,-16.01 9.9,-3.77 20.71,-5.65 32.42,-5.65 11.85,0 22.69,1.88 32.53,5.65 9.83,3.77 18.37,9.1 25.63,16.01 7.25,6.9 12.93,14.95 17.05,24.16 4.11,9.2 6.17,19.31 6.17,30.33 0,11.02 -2.06,21.16 -6.17,30.44 -4.11,9.27 -9.8,17.33 -17.05,24.16 -7.26,6.83 -15.8,12.13 -25.63,15.9 -9.83,3.77 -20.67,5.65 -32.53,5.65zm0 -34.31c5.58,0 10.77,-0.98 15.59,-2.93 4.81,-1.95 8.99,-4.77 12.55,-8.47 3.56,-3.7 6.34,-8.12 8.37,-13.29 2.02,-5.16 3.03,-10.88 3.03,-17.15 0,-6.41 -1.01,-12.17 -3.03,-17.26 -2.02,-5.09 -4.81,-9.48 -8.37,-13.18 -3.56,-3.69 -7.74,-6.52 -12.55,-8.47 -4.81,-1.95 -10.01,-2.93 -15.59,-2.93 -5.58,0 -10.77,0.98 -15.59,2.93 -4.81,1.95 -9,4.78 -12.55,8.47 -3.55,3.7 -6.35,8.09 -8.37,13.18 -2.02,5.09 -3.03,10.84 -3.03,17.26 0,6.28 1.01,11.99 3.03,17.15 2.02,5.16 4.81,9.59 8.37,13.29 3.56,3.69 7.74,6.52 12.55,8.47 4.81,1.96 10,2.93 15.59,2.93z"/>
  <path class="fil1" d="M1171.46 937.37c-11.57,0 -22.28,-1.85 -32.11,-5.54 -9.83,-3.69 -18.34,-8.96 -25.52,-15.79 -7.18,-6.84 -12.8,-14.89 -16.84,-24.16 -4.04,-9.27 -6.07,-19.49 -6.07,-30.65 0,-11.16 2.03,-21.37 6.07,-30.65 4.04,-9.28 9.66,-17.33 16.84,-24.16 7.18,-6.83 15.69,-12.1 25.52,-15.79 9.83,-3.7 20.53,-5.54 32.11,-5.54 13.53,0 25.63,2.37 36.3,7.11 10.67,4.74 19.56,11.57 26.67,20.5l-26.36 23.85c-4.74,-5.58 -9.94,-9.83 -15.59,-12.76 -5.65,-2.93 -11.96,-4.39 -18.93,-4.39 -6,0 -11.51,0.98 -16.53,2.93 -5.03,1.95 -9.31,4.78 -12.87,8.47 -3.56,3.7 -6.34,8.12 -8.37,13.29 -2.02,5.16 -3.03,10.88 -3.03,17.15 0,6.28 1.01,11.99 3.03,17.15 2.02,5.16 4.81,9.59 8.37,13.29 3.56,3.69 7.84,6.52 12.87,8.47 5.02,1.96 10.52,2.93 16.53,2.93 6.97,0 13.28,-1.47 18.93,-4.39 5.65,-2.93 10.84,-7.18 15.59,-12.76l26.36 23.85c-7.11,8.79 -16.01,15.58 -26.67,20.4 -10.67,4.81 -22.77,7.22 -36.3,7.22z"/>
  <path class="fil2" d="M1035.15 342.32l-28.42 0c0,0 -0.13,16.36 -0.32,19.49l28.75 0c10.75,0 19.49,8.74 19.49,19.49l0 48.72c0,10.75 -8.73,19.5 -19.49,19.5l-54.41 0c-11.34,0 -19.75,-1.12 -25.99,-3.23 -8.87,-3.01 -13.34,-8.05 -15.59,-14.84 -4.39,0.2 -8.48,0.21 -12.03,0.21 -2.66,0 -5.33,0.01 -7.91,0.06 3.18,15.11 11.85,28.97 35.53,34.61 4.76,1.14 10.19,1.91 16.24,2.33l0 45.02c0,10.75 -8.75,19.49 -19.48,19.49l-48.74 0c-10.75,0 -19.5,-8.74 -19.5,-19.49l0 -54.41c0,-43.85 16.51,-43.85 43.85,-43.85 26.74,-0.01 63.35,-0.01 63.35,-63.35l0 -54.4c0,-21.5 -17.49,-38.98 -38.97,-38.98l-48.74 0c-21.5,0 -38.98,17.48 -38.98,38.98l0 44.66 -44.66 0c-21.5,0 -38.98,17.48 -38.98,38.98l0 48.72c0,21.5 17.48,38.98 38.98,38.98l28.42 0 0 -9.74c0,-3.41 0.13,-6.62 0.33,-9.74l-28.75 0c-10.75,0 -19.49,-8.74 -19.49,-19.5l0 -48.72c0,-10.75 8.74,-19.49 19.49,-19.49l54.41 0c11.35,0 19.75,1.11 25.98,3.23 8.87,3.01 13.35,8.05 15.6,14.85 4.39,-0.2 8.47,-0.21 12.01,-0.21 2.67,0 5.35,-0.01 7.92,-0.06 -3.18,-15.11 -11.85,-28.96 -35.54,-34.61 -4.76,-1.14 -10.19,-1.91 -16.24,-2.32l0 -45.02c0,-10.75 8.75,-19.49 19.5,-19.49l48.74 -0c10.73,0 19.48,8.74 19.48,19.49l0 54.4c0,43.85 -16.51,43.85 -43.86,43.85 -26.73,0 -63.34,0 -63.34,63.35l0 54.41c0,21.49 17.49,38.98 38.98,38.98l48.74 0c21.48,0 38.97,-17.49 38.97,-38.98l0 -44.66 44.66 0c21.49,0 38.99,-17.49 38.99,-38.98l0 -48.72c0,-21.5 -17.5,-38.98 -38.99,-38.98z"/>
 </g>
</svg>
